# xmcd
#
# Track frame offsets: 
#        150
#        12150
#        21987
#        34107
#        46505
#        58615
#        71155
#        81630
#        91075
#        102325
#        113607
#        127132
#        139905
#        152937
#        164442
#        176260
#        187755
#        201295
#        215362
#        228590
#        242120
#        252452
#
# Disc length: 3524 seconds
#
# Revision: 2
# Processed by: cddbd v1.5.2PL0 Copyright (c) Steve Scherf et al.
# Submitted via: ExactAudioCopy v1.0b1
#
DISCID=330dc216
DTITLE=Various Artist - Chicago Blues From Federal Records
DYEAR=1999
DGENRE=Blues
TTITLE0=Kid Thomas - Wolf Pack (mono)
TTITLE1=Kid Thomas - The Spell (mono)
TTITLE2=Kid Thomas - Jivin' Mess (mono)
TTITLE3=Kid Thomas - You're Fine (mono)
TTITLE4=Kid Thomas - Come Here Woman (mono)
TTITLE5=Kid Thomas - Beulah Come Back (mono)
TTITLE6=Kid Thomas - Here Is My Story (mono)
TTITLE7=Kid Thomas - Ride On, Ride On (mono)
TTITLE8=Smokey Smothers - I've Been Drinking Muddy Water (mono)
TTITLE9=Smokey Smothers - Blind And Dumb Man Blues (mono)
TTITLE10=Smokey Smothers - Hello Little School Girl (mono)
TTITLE11=Smokey Smothers - Come On, Rock Little Girl (mono)
TTITLE12=Willie Mabon - Light Up Your Lamp (mono)
TTITLE13=Willie Mabon - Rosetta Rosetta (mono)
TTITLE14=Willie Mabon - It's Gonna Hurt You (mono)
TTITLE15=Willie Mabon - Got To Find My Baby (mono)
TTITLE16=Bobby King - I Want You To Rock Me (mono)
TTITLE17=Bobby King - Two Telephones (mono)
TTITLE18=Bobby King - W-A-S-T-E-D (mono)
TTITLE19=Bobby King - What A Day, What A Night (mono)
TTITLE20=Eddie Clearwater - Real Good Time (mono)
TTITLE21=Eddie Clearwater - Hey Bernardine (mono)
EXTD=
EXTT0=
EXTT1=
EXTT2=
EXTT3=
EXTT4=
EXTT5=
EXTT6=
EXTT7=
EXTT8=
EXTT9=
EXTT10=
EXTT11=
EXTT12=
EXTT13=
EXTT14=
EXTT15=
EXTT16=
EXTT17=
EXTT18=
EXTT19=
EXTT20=
EXTT21=
PLAYORDER=
